<svg xmlns="http://www.w3.org/2000/svg" viewBox="0 0 24 24" width="24" height="24" fill="#00c6ff">
  <path d="M19.43 12.98c.04-.32.07-.65.07-.98s-.03-.66-.07-.98l2.11-1.65a.5.5 0 00.12-.65l-2-3.46a.5.5 0 00-.61-.22l-2.49 1a7.03 7.03 0 00-1.69-.98l-.38-2.65A.5.5 0 0014 2h-4a.5.5 0 00-.5.42l-.38 2.65c-.63.26-1.21.6-1.69.98l-2.49-1a.5.5 0 00-.61.22l-2 3.46a.5.5 0 00.12.65l2.11 1.65c-.04.32-.07.65-.07.98s.03.66.07.98l-2.11 1.65a.5.5 0 00-.12.65l2 3.46c.14.24.43.33.68.22l2.49-1c.48.38 1.06.72 1.69.98l.38 2.65A.5.5 0 0010 22h4a.5.5 0 00.5-.42l.38-2.65c.63-.26 1.21-.6 1.69-.98l2.49 1c.25.11.54.02.68-.22l2-3.46a.5.5 0 00-.12-.65l-2.11-1.65zM12 15.5a3.5 3.5 0 110-7 3.5 3.5 0 010 7z"/>
</svg>
